<svg xmlns="http://www.w3.org/2000/svg" xmlns:xlink="http://www.w3.org/1999/xlink" width="800" height="260.52"><rect width="800" height="260.52" rx="0" ry="0" class="a"/><svg height="260.52" viewBox="0 0 80 26.052" width="800" xmlns="http://www.w3.org/2000/svg" xmlns:xlink="http://www.w3.org/1999/xlink"><style>@keyframes r{0%{transform:translateX(0)}.18%{transform:translateX(-80px)}2.73%{transform:translateX(-240px)}2.74%{transform:translateX(-560px)}14.83%{transform:translateX(-640px)}17.04%{transform:translateX(-720px)}18.72%{transform:translateX(-800px)}18.74%{transform:translateX(-1040px)}18.86%{transform:translateX(-1120px)}18.89%{transform:translateX(-1200px)}24.05%{transform:translateX(-1280px)}25.24%{transform:translateX(-1360px)}26.12%{transform:translateX(-1440px)}26.91%{transform:translateX(-1520px)}26.97%{transform:translateX(-1600px)}31.94%{transform:translateX(-1680px)}33.26%{transform:translateX(-1760px)}34.73%{transform:translateX(-1840px)}35.67%{transform:translateX(-1920px)}36.99%{transform:translateX(-2000px)}38%{transform:translateX(-2080px)}40.4%{transform:translateX(-2160px)}41.51%{transform:translateX(-2240px)}42.34%{transform:translateX(-2320px)}42.74%{transform:translateX(-2400px)}43.87%{transform:translateX(-2480px)}45.34%{transform:translateX(-2560px)}45.8%{transform:translateX(-2640px)}47.15%{transform:translateX(-2720px)}47.88%{transform:translateX(-2800px)}48.96%{transform:translateX(-2880px)}49.27%{transform:translateX(-2960px)}50.28%{transform:translateX(-3040px)}50.43%{transform:translateX(-3120px)}50.48%{transform:translateX(-3200px)}50.5%{transform:translateX(-3280px)}54.52%{transform:translateX(-3360px)}54.69%{transform:translateX(-3520px)}54.85%{transform:translateX(-3680px)}54.86%{transform:translateX(-3760px)}60.28%{transform:translateX(-3840px)}60.79%{transform:translateX(-3920px)}61.38%{transform:translateX(-4000px)}62.56%{transform:translateX(-4080px)}63.09%{transform:translateX(-4160px)}63.79%{transform:translateX(-4240px)}64.7%{transform:translateX(-4320px)}74.85%{transform:translateX(-4400px)}75.25%{transform:translateX(-4480px)}76.51%{transform:translateX(-4560px)}77.26%{transform:translateX(-4640px)}78.17%{transform:translateX(-4720px)}78.48%{transform:translateX(-4800px)}78.49%{transform:translateX(-4960px)}81.57%{transform:translateX(-5040px)}83.16%{transform:translateX(-5120px)}84.11%{transform:translateX(-5200px)}85.02%{transform:translateX(-5280px)}85.11%{transform:translateX(-5360px)}85.12%{transform:translateX(-5520px)}88.77%{transform:translateX(-5600px)}90.27%{transform:translateX(-5680px)}90.9%{transform:translateX(-5760px)}91%{transform:translateX(-5840px)}91.01%{transform:translateX(-5920px)}93.31%{transform:translateX(-6000px)}93.32%{transform:translateX(-6080px)}93.36%{transform:translateX(-6320px)}93.43%{transform:translateX(-6400px)}93.44%{transform:translateX(-6640px)}93.6%{transform:translateX(-6880px)}to{transform:translateX(-7040px)}}.a{fill:#282d35}.c{fill:#00afff;font-weight:700;white-space:pre}.d,.e,.f,.g,.h,.i{fill:#0087af;white-space:pre}.e,.f,.g,.h,.i{fill:#5fd700}.f,.g,.h,.i{fill:#8787af}.g,.h,.i{fill:#d7af00}.h,.i{fill:#00afff}.i{fill:#a8cc8c}.j{font-weight:700}.j,.k,.l,.m{fill:#71bef2;white-space:pre}.l,.m{fill:#b9c0cb}.m{fill:#6f7783}.n{fill:#b9c0cb;text-decoration:underline}.n,.o,.t,.u{white-space:pre}.o{fill:#66c2cd;font-weight:700}.t,.u{fill:#e88388}.u{fill:#b9c0cb;font-weight:700;text-decoration:underline}</style><g font-family="Monaco,Consolas,Menlo,'Bitstream Vera Sans Mono','Powerline Symbols',monospace" font-size="1.67"><defs><symbol id="1"><text y="1.67" class="c">~</text><text x="1.002" y="1.67" class="d">/Projects/igorbrites/</text><text x="22.044" y="1.67" class="c">terraform-modules</text></symbol><symbol id="2"><text y="1.67" class="e">❯</text></symbol><symbol id="3"><text y="1.67" class="c">~</text><text x="1.002" y="1.67" class="d">/</text><text x="2.004" y="1.67" class="f">Pr</text><text x="4.008" y="1.67" class="d">/</text><text x="5.01" y="1.67" class="f">i</text><text x="6.012" y="1.67" class="d">/</text><text x="7.014" y="1.67" class="c">terraform-modules</text><text x="25.05" y="1.67" class="e">test-actions</text><text x="38.076" y="1.67" class="g">!1</text><text x="41.082" y="1.67" class="h">?2</text></symbol><symbol id="4"><text y="1.67" class="e">❯</text><text x="2.004" y="1.67" class="i">.scripts/new-module.sh</text></symbol><symbol id="5"><text y="1.67" class="j">Let&apos;s</text><text x="6.012" y="1.67" class="j">create</text><text x="13.026" y="1.67" class="j">a</text><text x="15.03" y="1.67" class="j">new</text><text x="19.038" y="1.67" class="j">module!</text></symbol><symbol id="6"><text y="1.67" class="k">Which</text><text x="6.012" y="1.67" class="k">provider</text><text x="15.03" y="1.67" class="k">will</text><text x="20.04" y="1.67" class="k">you</text><text x="24.048" y="1.67" class="k">use:</text><text x="29.058" y="1.67" class="l">aws</text></symbol><symbol id="7"><text y="1.67" class="k">What</text><text x="5.01" y="1.67" class="k">is</text><text x="8.016" y="1.67" class="k">the</text><text x="12.024" y="1.67" class="k">name</text><text x="17.034" y="1.67" class="k">of</text><text x="20.04" y="1.67" class="k">the</text><text x="24.048" y="1.67" class="k">module:</text><text x="32.064" y="1.67" class="l">my-awesome-module</text></symbol><symbol id="8"><text y="1.67" class="k">The</text><text x="4.008" y="1.67" class="k">path</text><text x="9.018" y="1.67" class="k">will</text><text x="14.028" y="1.67" class="k">be</text><text x="17.034" y="1.67" class="j">modules/aws/my-awesome-module</text><text x="46.092" y="1.67" class="k">.</text><text x="48.096" y="1.67" class="k">Accept?</text><text x="56.112" y="1.67" class="k">[Y/n]</text></symbol><symbol id="9"><text y="1.67" class="i">Module</text><text x="7.014" y="1.67" class="i">my-awesome-module</text><text x="25.05" y="1.67" class="i">created</text><text x="33.066" y="1.67" class="i">successfully.</text><text x="47.094" y="1.67" class="i">Happy</text><text x="53.106" y="1.67" class="i">Terraforming!</text></symbol><symbol id="10"><text y="1.67" class="c">~</text><text x="1.002" y="1.67" class="d">/</text><text x="2.004" y="1.67" class="f">Pr</text><text x="4.008" y="1.67" class="d">/</text><text x="5.01" y="1.67" class="f">i</text><text x="6.012" y="1.67" class="d">/</text><text x="7.014" y="1.67" class="c">terraform-modules</text><text x="25.05" y="1.67" class="e">test-actions</text><text x="38.076" y="1.67" class="g">!1</text><text x="41.082" y="1.67" class="h">?3</text></symbol><symbol id="11"><text y="1.67" class="e">❯</text><text x="2.004" y="1.67" class="i">ls</text><text x="5.01" y="1.67" class="m">-la</text><text x="9.018" y="1.67" class="m">modules/aws/this-awesome-module</text></symbol><symbol id="12"><text y="1.67" class="e">❯</text><text x="2.004" y="1.67" class="i">ls</text><text x="5.01" y="1.67" class="l">-la</text><text x="9.018" y="1.67" class="m">modules/aws/this-awesome-module</text></symbol><symbol id="13"><text y="1.67" class="e">❯</text><text x="2.004" y="1.67" class="i">ls</text><text x="5.01" y="1.67" class="l">-la</text><text x="9.018" y="1.67" class="n">modules/aws/my-awesome-module</text></symbol><symbol id="14"><text y="1.67" class="l">total</text><text x="6.012" y="1.67" class="l">64</text></symbol><symbol id="15"><text y="1.67" class="l">drwxr-xr-x</text><text x="12.024" y="1.67" class="l">10</text><text x="15.03" y="1.67" class="l">igorbrites</text><text x="27.054" y="1.67" class="l">staff</text><text x="34.068" y="1.67" class="l">320</text><text x="38.076" y="1.67" class="l">Oct</text><text x="42.084" y="1.67" class="l">21</text><text x="45.09" y="1.67" class="l">17:55</text><text x="51.102" y="1.67" class="o">.</text></symbol><symbol id="16"><text y="1.67" class="l">drwxr-xr-x</text><text x="13.026" y="1.67" class="l">4</text><text x="15.03" y="1.67" class="l">igorbrites</text><text x="27.054" y="1.67" class="l">staff</text><text x="34.068" y="1.67" class="l">128</text><text x="38.076" y="1.67" class="l">Oct</text><text x="42.084" y="1.67" class="l">21</text><text x="45.09" y="1.67" class="l">17:55</text><text x="51.102" y="1.67" class="o">..</text></symbol><symbol id="17"><text y="1.67" class="l">-rw-r--r--</text><text x="13.026" y="1.67" class="l">1</text><text x="15.03" y="1.67" class="l">igorbrites</text><text x="27.054" y="1.67" class="l">staff</text><text x="35.07" y="1.67" class="l">11</text><text x="38.076" y="1.67" class="l">Oct</text><text x="42.084" y="1.67" class="l">21</text><text x="45.09" y="1.67" class="l">17:55</text><text x="51.102" y="1.67" class="l">LICENSE</text></symbol><symbol id="18"><text y="1.67" class="l">-rw-r--r--</text><text x="13.026" y="1.67" class="l">1</text><text x="15.03" y="1.67" class="l">igorbrites</text><text x="27.054" y="1.67" class="l">staff</text><text x="34.068" y="1.67" class="l">152</text><text x="38.076" y="1.67" class="l">Oct</text><text x="42.084" y="1.67" class="l">21</text><text x="45.09" y="1.67" class="l">17:55</text><text x="51.102" y="1.67" class="l">README.md</text></symbol><symbol id="19"><text y="1.67" class="l">-rw-r--r--</text><text x="13.026" y="1.67" class="l">1</text><text x="15.03" y="1.67" class="l">igorbrites</text><text x="27.054" y="1.67" class="l">staff</text><text x="35.07" y="1.67" class="l">93</text><text x="38.076" y="1.67" class="l">Oct</text><text x="42.084" y="1.67" class="l">21</text><text x="45.09" y="1.67" class="l">17:55</text><text x="51.102" y="1.67" class="l">main.tf</text></symbol><symbol id="20"><text y="1.67" class="l">-rw-r--r--</text><text x="13.026" y="1.67" class="l">1</text><text x="15.03" y="1.67" class="l">igorbrites</text><text x="27.054" y="1.67" class="l">staff</text><text x="35.07" y="1.67" class="l">89</text><text x="38.076" y="1.67" class="l">Oct</text><text x="42.084" y="1.67" class="l">21</text><text x="45.09" y="1.67" class="l">17:55</text><text x="51.102" y="1.67" class="l">outputs.tf</text></symbol><symbol id="21"><text y="1.67" class="l">-rw-r--r--</text><text x="13.026" y="1.67" class="l">1</text><text x="15.03" y="1.67" class="l">igorbrites</text><text x="27.054" y="1.67" class="l">staff</text><text x="34.068" y="1.67" class="l">142</text><text x="38.076" y="1.67" class="l">Oct</text><text x="42.084" y="1.67" class="l">21</text><text x="45.09" y="1.67" class="l">17:55</text><text x="51.102" y="1.67" class="l">package.json</text></symbol><symbol id="22"><text y="1.67" class="l">-rw-r--r--</text><text x="13.026" y="1.67" class="l">1</text><text x="15.03" y="1.67" class="l">igorbrites</text><text x="27.054" y="1.67" class="l">staff</text><text x="35.07" y="1.67" class="l">42</text><text x="38.076" y="1.67" class="l">Oct</text><text x="42.084" y="1.67" class="l">21</text><text x="45.09" y="1.67" class="l">17:55</text><text x="51.102" y="1.67" class="l">providers.tf</text></symbol><symbol id="23"><text y="1.67" class="l">-rw-r--r--</text><text x="13.026" y="1.67" class="l">1</text><text x="15.03" y="1.67" class="l">igorbrites</text><text x="27.054" y="1.67" class="l">staff</text><text x="35.07" y="1.67" class="l">87</text><text x="38.076" y="1.67" class="l">Oct</text><text x="42.084" y="1.67" class="l">21</text><text x="45.09" y="1.67" class="l">17:55</text><text x="51.102" y="1.67" class="l">variables.tf</text></symbol><symbol id="24"><text y="1.67" class="l">-rw-r--r--</text><text x="13.026" y="1.67" class="l">1</text><text x="15.03" y="1.67" class="l">igorbrites</text><text x="27.054" y="1.67" class="l">staff</text><text x="34.068" y="1.67" class="l">148</text><text x="38.076" y="1.67" class="l">Oct</text><text x="42.084" y="1.67" class="l">21</text><text x="45.09" y="1.67" class="l">17:55</text><text x="51.102" y="1.67" class="l">versions.tf</text></symbol><symbol id="a"><path fill="transparent" d="M0 0h80v12H0z"/></symbol><symbol id="b"><path fill="#6f7683" d="M0 0h1.102v2.171H0z"/></symbol></defs><path class="a" d="M0 0h80v26.052H0z"/><g style="animation-duration:18.784835s;animation-iteration-count:infinite;animation-name:r;animation-timing-function:steps(1,end)"><svg width="7120"><svg><use xlink:href="#a"/><use xlink:href="#b" x="-.004"/></svg><svg x="80"><use xlink:href="#a"/><use xlink:href="#b" x="1.996" y="2.146"/><use xlink:href="#1"/><use xlink:href="#2" y="2.171"/></svg><svg x="160"><use xlink:href="#a"/><use xlink:href="#1"/><use xlink:href="#2" y="2.171"/></svg><svg x="240"><use xlink:href="#a"/></svg><svg x="320"><use xlink:href="#a"/><use xlink:href="#3"/><use xlink:href="#2" y="2.171"/></svg><svg x="400"><use xlink:href="#a"/><use xlink:href="#3"/><use xlink:href="#2" y="2.171"/></svg><svg x="480"><use xlink:href="#a"/><use xlink:href="#b" x="1.996" y="2.146"/><use xlink:href="#3"/><use xlink:href="#2" y="2.171"/></svg><svg x="560"><use xlink:href="#a"/><use xlink:href="#b" x="1.996" y="2.146"/><use xlink:href="#3"/><use xlink:href="#2" y="2.171"/></svg><svg x="640"><use xlink:href="#a"/><use xlink:href="#b" x="2.996" y="2.146"/><use xlink:href="#3"/><text y="3.841" class="e">❯</text><text x="2.004" y="3.841" class="i">.</text><text x="3.006" y="3.841" class="m">scripts/new-module.sh</text></svg><svg x="720"><use xlink:href="#a"/><use xlink:href="#b" x="23.996" y="2.146"/><use xlink:href="#3"/><use xlink:href="#4" y="2.171"/></svg><svg x="800"><use xlink:href="#a"/><use xlink:href="#b" x="23.996" y="2.146"/><use xlink:href="#3"/><use xlink:href="#4" y="2.171"/></svg><svg x="880"><use xlink:href="#a"/><use xlink:href="#3"/><use xlink:href="#4" y="2.171"/></svg><svg x="960"><use xlink:href="#a"/><use xlink:href="#b" x="23.996"/><use xlink:href="#4"/></svg><svg x="1040"><use xlink:href="#a"/><use xlink:href="#b" x="-.004" y="2.146"/><use xlink:href="#4"/></svg><svg x="1120"><use xlink:href="#a"/><use xlink:href="#b" x="-.004" y="6.488"/><use xlink:href="#4"/><use xlink:href="#5" y="2.171"/></svg><svg x="1200"><use xlink:href="#a"/><use xlink:href="#b" x="28.996" y="6.488"/><use xlink:href="#4"/><use xlink:href="#5" y="2.171"/><text y="8.183" class="k">Which</text><text x="6.012" y="8.183" class="k">provider</text><text x="15.03" y="8.183" class="k">will</text><text x="20.04" y="8.183" class="k">you</text><text x="24.048" y="8.183" class="k">use:</text></svg><svg x="1280"><use xlink:href="#a"/><use xlink:href="#b" x="29.996" y="6.488"/><use xlink:href="#4"/><use xlink:href="#5" y="2.171"/><text y="8.183" class="k">Which</text><text x="6.012" y="8.183" class="k">provider</text><text x="15.03" y="8.183" class="k">will</text><text x="20.04" y="8.183" class="k">you</text><text x="24.048" y="8.183" class="k">use:</text><text x="29.058" y="8.183" class="l">a</text></svg><svg x="1360"><use xlink:href="#a"/><use xlink:href="#b" x="30.996" y="6.488"/><use xlink:href="#4"/><use xlink:href="#5" y="2.171"/><text y="8.183" class="k">Which</text><text x="6.012" y="8.183" class="k">provider</text><text x="15.03" y="8.183" class="k">will</text><text x="20.04" y="8.183" class="k">you</text><text x="24.048" y="8.183" class="k">use:</text><text x="29.058" y="8.183" class="l">aw</text></svg><svg x="1440"><use xlink:href="#a"/><use xlink:href="#b" x="31.996" y="6.488"/><use xlink:href="#4"/><use xlink:href="#5" y="2.171"/><use xlink:href="#6" y="6.513"/></svg><svg x="1520"><use xlink:href="#a"/><use xlink:href="#b" x="-.004" y="8.659"/><use xlink:href="#4"/><use xlink:href="#5" y="2.171"/><use xlink:href="#6" y="6.513"/></svg><svg x="1600"><use xlink:href="#a"/><use xlink:href="#b" x="31.996" y="8.659"/><use xlink:href="#4"/><use xlink:href="#5" y="2.171"/><use xlink:href="#6" y="6.513"/><text y="10.354" class="k">What</text><text x="5.01" y="10.354" class="k">is</text><text x="8.016" y="10.354" class="k">the</text><text x="12.024" y="10.354" class="k">name</text><text x="17.034" y="10.354" class="k">of</text><text x="20.04" y="10.354" class="k">the</text><text x="24.048" y="10.354" class="k">module:</text></svg><svg x="1680"><use xlink:href="#a"/><use xlink:href="#b" x="32.996" y="8.659"/><use xlink:href="#4"/><use xlink:href="#5" y="2.171"/><use xlink:href="#6" y="6.513"/><text y="10.354" class="k">What</text><text x="5.01" y="10.354" class="k">is</text><text x="8.016" y="10.354" class="k">the</text><text x="12.024" y="10.354" class="k">name</text><text x="17.034" y="10.354" class="k">of</text><text x="20.04" y="10.354" class="k">the</text><text x="24.048" y="10.354" class="k">module:</text><text x="32.064" y="10.354" class="l">m</text></svg><svg x="1760"><use xlink:href="#a"/><use xlink:href="#b" x="33.996" y="8.659"/><use xlink:href="#4"/><use xlink:href="#5" y="2.171"/><use xlink:href="#6" y="6.513"/><text y="10.354" class="k">What</text><text x="5.01" y="10.354" class="k">is</text><text x="8.016" y="10.354" class="k">the</text><text x="12.024" y="10.354" class="k">name</text><text x="17.034" y="10.354" class="k">of</text><text x="20.04" y="10.354" class="k">the</text><text x="24.048" y="10.354" class="k">module:</text><text x="32.064" y="10.354" class="l">my</text></svg><svg x="1840"><use xlink:href="#a"/><use xlink:href="#b" x="34.996" y="8.659"/><use xlink:href="#4"/><use xlink:href="#5" y="2.171"/><use xlink:href="#6" y="6.513"/><text y="10.354" class="k">What</text><text x="5.01" y="10.354" class="k">is</text><text x="8.016" y="10.354" class="k">the</text><text x="12.024" y="10.354" class="k">name</text><text x="17.034" y="10.354" class="k">of</text><text x="20.04" y="10.354" class="k">the</text><text x="24.048" y="10.354" class="k">module:</text><text x="32.064" y="10.354" class="l">my-</text></svg><svg x="1920"><use xlink:href="#a"/><use xlink:href="#b" x="35.996" y="8.659"/><use xlink:href="#4"/><use xlink:href="#5" y="2.171"/><use xlink:href="#6" y="6.513"/><text y="10.354" class="k">What</text><text x="5.01" y="10.354" class="k">is</text><text x="8.016" y="10.354" class="k">the</text><text x="12.024" y="10.354" class="k">name</text><text x="17.034" y="10.354" class="k">of</text><text x="20.04" y="10.354" class="k">the</text><text x="24.048" y="10.354" class="k">module:</text><text x="32.064" y="10.354" class="l">my-a</text></svg><svg x="2000"><use xlink:href="#a"/><use xlink:href="#b" x="36.996" y="8.659"/><use xlink:href="#4"/><use xlink:href="#5" y="2.171"/><use xlink:href="#6" y="6.513"/><text y="10.354" class="k">What</text><text x="5.01" y="10.354" class="k">is</text><text x="8.016" y="10.354" class="k">the</text><text x="12.024" y="10.354" class="k">name</text><text x="17.034" y="10.354" class="k">of</text><text x="20.04" y="10.354" class="k">the</text><text x="24.048" y="10.354" class="k">module:</text><text x="32.064" y="10.354" class="l">my-aw</text></svg><svg x="2080"><use xlink:href="#a"/><use xlink:href="#b" x="37.996" y="8.659"/><use xlink:href="#4"/><use xlink:href="#5" y="2.171"/><use xlink:href="#6" y="6.513"/><text y="10.354" class="k">What</text><text x="5.01" y="10.354" class="k">is</text><text x="8.016" y="10.354" class="k">the</text><text x="12.024" y="10.354" class="k">name</text><text x="17.034" y="10.354" class="k">of</text><text x="20.04" y="10.354" class="k">the</text><text x="24.048" y="10.354" class="k">module:</text><text x="32.064" y="10.354" class="l">my-awe</text></svg><svg x="2160"><use xlink:href="#a"/><use xlink:href="#b" x="38.996" y="8.659"/><use xlink:href="#4"/><use xlink:href="#5" y="2.171"/><use xlink:href="#6" y="6.513"/><text y="10.354" class="k">What</text><text x="5.01" y="10.354" class="k">is</text><text x="8.016" y="10.354" class="k">the</text><text x="12.024" y="10.354" class="k">name</text><text x="17.034" y="10.354" class="k">of</text><text x="20.04" y="10.354" class="k">the</text><text x="24.048" y="10.354" class="k">module:</text><text x="32.064" y="10.354" class="l">my-awes</text></svg><svg x="2240"><use xlink:href="#a"/><use xlink:href="#b" x="39.996" y="8.659"/><use xlink:href="#4"/><use xlink:href="#5" y="2.171"/><use xlink:href="#6" y="6.513"/><text y="10.354" class="k">What</text><text x="5.01" y="10.354" class="k">is</text><text x="8.016" y="10.354" class="k">the</text><text x="12.024" y="10.354" class="k">name</text><text x="17.034" y="10.354" class="k">of</text><text x="20.04" y="10.354" class="k">the</text><text x="24.048" y="10.354" class="k">module:</text><text x="32.064" y="10.354" class="l">my-aweso</text></svg><svg x="2320"><use xlink:href="#a"/><use xlink:href="#b" x="40.996" y="8.659"/><use xlink:href="#4"/><use xlink:href="#5" y="2.171"/><use xlink:href="#6" y="6.513"/><text y="10.354" class="k">What</text><text x="5.01" y="10.354" class="k">is</text><text x="8.016" y="10.354" class="k">the</text><text x="12.024" y="10.354" class="k">name</text><text x="17.034" y="10.354" class="k">of</text><text x="20.04" y="10.354" class="k">the</text><text x="24.048" y="10.354" class="k">module:</text><text x="32.064" y="10.354" class="l">my-awesom</text></svg><svg x="2400"><use xlink:href="#a"/><use xlink:href="#b" x="41.996" y="8.659"/><use xlink:href="#4"/><use xlink:href="#5" y="2.171"/><use xlink:href="#6" y="6.513"/><text y="10.354" class="k">What</text><text x="5.01" y="10.354" class="k">is</text><text x="8.016" y="10.354" class="k">the</text><text x="12.024" y="10.354" class="k">name</text><text x="17.034" y="10.354" class="k">of</text><text x="20.04" y="10.354" class="k">the</text><text x="24.048" y="10.354" class="k">module:</text><text x="32.064" y="10.354" class="l">my-awesome</text></svg><svg x="2480"><use xlink:href="#a"/><use xlink:href="#b" x="42.996" y="8.659"/><use xlink:href="#4"/><use xlink:href="#5" y="2.171"/><use xlink:href="#6" y="6.513"/><text y="10.354" class="k">What</text><text x="5.01" y="10.354" class="k">is</text><text x="8.016" y="10.354" class="k">the</text><text x="12.024" y="10.354" class="k">name</text><text x="17.034" y="10.354" class="k">of</text><text x="20.04" y="10.354" class="k">the</text><text x="24.048" y="10.354" class="k">module:</text><text x="32.064" y="10.354" class="l">my-awesome-</text></svg><svg x="2560"><use xlink:href="#a"/><use xlink:href="#b" x="43.996" y="8.659"/><use xlink:href="#4"/><use xlink:href="#5" y="2.171"/><use xlink:href="#6" y="6.513"/><text y="10.354" class="k">What</text><text x="5.01" y="10.354" class="k">is</text><text x="8.016" y="10.354" class="k">the</text><text x="12.024" y="10.354" class="k">name</text><text x="17.034" y="10.354" class="k">of</text><text x="20.04" y="10.354" class="k">the</text><text x="24.048" y="10.354" class="k">module:</text><text x="32.064" y="10.354" class="l">my-awesome-m</text></svg><svg x="2640"><use xlink:href="#a"/><use xlink:href="#b" x="44.996" y="8.659"/><use xlink:href="#4"/><use xlink:href="#5" y="2.171"/><use xlink:href="#6" y="6.513"/><text y="10.354" class="k">What</text><text x="5.01" y="10.354" class="k">is</text><text x="8.016" y="10.354" class="k">the</text><text x="12.024" y="10.354" class="k">name</text><text x="17.034" y="10.354" class="k">of</text><text x="20.04" y="10.354" class="k">the</text><text x="24.048" y="10.354" class="k">module:</text><text x="32.064" y="10.354" class="l">my-awesome-mo</text></svg><svg x="2720"><use xlink:href="#a"/><use xlink:href="#b" x="45.996" y="8.659"/><use xlink:href="#4"/><use xlink:href="#5" y="2.171"/><use xlink:href="#6" y="6.513"/><text y="10.354" class="k">What</text><text x="5.01" y="10.354" class="k">is</text><text x="8.016" y="10.354" class="k">the</text><text x="12.024" y="10.354" class="k">name</text><text x="17.034" y="10.354" class="k">of</text><text x="20.04" y="10.354" class="k">the</text><text x="24.048" y="10.354" class="k">module:</text><text x="32.064" y="10.354" class="l">my-awesome-mod</text></svg><svg x="2800"><use xlink:href="#a"/><use xlink:href="#b" x="46.996" y="8.659"/><use xlink:href="#4"/><use xlink:href="#5" y="2.171"/><use xlink:href="#6" y="6.513"/><text y="10.354" class="k">What</text><text x="5.01" y="10.354" class="k">is</text><text x="8.016" y="10.354" class="k">the</text><text x="12.024" y="10.354" class="k">name</text><text x="17.034" y="10.354" class="k">of</text><text x="20.04" y="10.354" class="k">the</text><text x="24.048" y="10.354" class="k">module:</text><text x="32.064" y="10.354" class="l">my-awesome-modu</text></svg><svg x="2880"><use xlink:href="#a"/><use xlink:href="#b" x="47.996" y="8.659"/><use xlink:href="#4"/><use xlink:href="#5" y="2.171"/><use xlink:href="#6" y="6.513"/><text y="10.354" class="k">What</text><text x="5.01" y="10.354" class="k">is</text><text x="8.016" y="10.354" class="k">the</text><text x="12.024" y="10.354" class="k">name</text><text x="17.034" y="10.354" class="k">of</text><text x="20.04" y="10.354" class="k">the</text><text x="24.048" y="10.354" class="k">module:</text><text x="32.064" y="10.354" class="l">my-awesome-modul</text></svg><svg x="2960"><use xlink:href="#a"/><use xlink:href="#b" x="48.996" y="8.659"/><use xlink:href="#4"/><use xlink:href="#5" y="2.171"/><use xlink:href="#6" y="6.513"/><use xlink:href="#7" y="8.684"/></svg><svg x="3040"><use xlink:href="#a"/><use xlink:href="#b" x="-.004" y="10.83"/><use xlink:href="#4"/><use xlink:href="#5" y="2.171"/><use xlink:href="#6" y="6.513"/><use xlink:href="#7" y="8.684"/></svg><svg x="3120"><use xlink:href="#a"/><use xlink:href="#b" x="16.996" y="10.83"/><use xlink:href="#4"/><use xlink:href="#5" y="2.171"/><use xlink:href="#6" y="6.513"/><use xlink:href="#7" y="8.684"/><text y="12.525" class="k">The</text><text x="4.008" y="12.525" class="k">path</text><text x="9.018" y="12.525" class="k">will</text><text x="14.028" y="12.525" class="k">be</text></svg><svg x="3200"><use xlink:href="#a"/><use xlink:href="#b" x="45.996" y="10.83"/><use xlink:href="#4"/><use xlink:href="#5" y="2.171"/><use xlink:href="#6" y="6.513"/><use xlink:href="#7" y="8.684"/><text y="12.525" class="k">The</text><text x="4.008" y="12.525" class="k">path</text><text x="9.018" y="12.525" class="k">will</text><text x="14.028" y="12.525" class="k">be</text><text x="17.034" y="12.525" class="j">modules/aws/my-awesome-module</text></svg><svg x="3280"><use xlink:href="#a"/><use xlink:href="#b" x="61.996" y="10.83"/><use xlink:href="#4"/><use xlink:href="#5" y="2.171"/><use xlink:href="#6" y="6.513"/><use xlink:href="#7" y="8.684"/><use xlink:href="#8" y="10.855"/></svg><svg x="3360"><use xlink:href="#a"/><use xlink:href="#b" x="-.004" y="13.001"/><use xlink:href="#4"/><use xlink:href="#5" y="2.171"/><use xlink:href="#6" y="6.513"/><use xlink:href="#7" y="8.684"/><use xlink:href="#8" y="10.855"/></svg><svg x="3440"><use xlink:href="#a"/><use xlink:href="#b" x="-.004" y="15.172"/><use xlink:href="#4"/><use xlink:href="#5" y="2.171"/><use xlink:href="#6" y="6.513"/><use xlink:href="#7" y="8.684"/><use xlink:href="#8" y="10.855"/><use xlink:href="#9" y="13.026"/></svg><svg x="3520"><use xlink:href="#a"/><use xlink:href="#b" x="-.004" y="15.172"/><use xlink:href="#4"/><use xlink:href="#5" y="2.171"/><use xlink:href="#6" y="6.513"/><use xlink:href="#7" y="8.684"/><use xlink:href="#8" y="10.855"/><use xlink:href="#9" y="13.026"/></svg><svg x="3600"><use xlink:href="#a"/><use xlink:href="#b" x="1.996" y="19.514"/><use xlink:href="#4"/><use xlink:href="#5" y="2.171"/><use xlink:href="#6" y="6.513"/><use xlink:href="#7" y="8.684"/><use xlink:href="#8" y="10.855"/><use xlink:href="#9" y="13.026"/><use xlink:href="#10" y="17.368"/><use xlink:href="#2" y="19.539"/></svg><svg x="3680"><use xlink:href="#a"/><use xlink:href="#b" x="1.996" y="19.514"/><use xlink:href="#4"/><use xlink:href="#5" y="2.171"/><use xlink:href="#6" y="6.513"/><use xlink:href="#7" y="8.684"/><use xlink:href="#8" y="10.855"/><use xlink:href="#9" y="13.026"/><use xlink:href="#10" y="17.368"/><use xlink:href="#2" y="19.539"/></svg><svg x="3760"><use xlink:href="#a"/><use xlink:href="#b" x="1.996" y="19.514"/><use xlink:href="#4"/><use xlink:href="#5" y="2.171"/><use xlink:href="#6" y="6.513"/><use xlink:href="#7" y="8.684"/><use xlink:href="#8" y="10.855"/><use xlink:href="#9" y="13.026"/><use xlink:href="#10" y="17.368"/><use xlink:href="#2" y="19.539"/></svg><svg x="3840"><use xlink:href="#a"/><use xlink:href="#b" x="2.996" y="19.514"/><use xlink:href="#4"/><use xlink:href="#5" y="2.171"/><use xlink:href="#6" y="6.513"/><use xlink:href="#7" y="8.684"/><use xlink:href="#8" y="10.855"/><use xlink:href="#9" y="13.026"/><use xlink:href="#10" y="17.368"/><text y="21.209" class="e">❯</text><text x="2.004" y="21.209" class="i">l</text><text x="3.006" y="21.209" class="m">s</text><text x="5.01" y="21.209" class="m">-la</text><text x="9.018" y="21.209" class="m">modules/aws/this-awesome-module</text></svg><svg x="3920"><use xlink:href="#a"/><use xlink:href="#b" x="3.996" y="19.514"/><use xlink:href="#4"/><use xlink:href="#5" y="2.171"/><use xlink:href="#6" y="6.513"/><use xlink:href="#7" y="8.684"/><use xlink:href="#8" y="10.855"/><use xlink:href="#9" y="13.026"/><use xlink:href="#10" y="17.368"/><use xlink:href="#11" y="19.539"/></svg><svg x="4000"><use xlink:href="#a"/><use xlink:href="#b" x="4.996" y="19.514"/><use xlink:href="#4"/><use xlink:href="#5" y="2.171"/><use xlink:href="#6" y="6.513"/><use xlink:href="#7" y="8.684"/><use xlink:href="#8" y="10.855"/><use xlink:href="#9" y="13.026"/><use xlink:href="#10" y="17.368"/><use xlink:href="#11" y="19.539"/></svg><svg x="4080"><use xlink:href="#a"/><use xlink:href="#b" x="5.996" y="19.514"/><use xlink:href="#4"/><use xlink:href="#5" y="2.171"/><use xlink:href="#6" y="6.513"/><use xlink:href="#7" y="8.684"/><use xlink:href="#8" y="10.855"/><use xlink:href="#9" y="13.026"/><use xlink:href="#10" y="17.368"/><text y="21.209" class="e">❯</text><text x="2.004" y="21.209" class="i">ls</text><text x="5.01" y="21.209" class="l">-</text><text x="6.012" y="21.209" class="m">la</text><text x="9.018" y="21.209" class="m">modules/aws/this-awesome-module</text></svg><svg x="4160"><use xlink:href="#a"/><use xlink:href="#b" x="6.996" y="19.514"/><use xlink:href="#4"/><use xlink:href="#5" y="2.171"/><use xlink:href="#6" y="6.513"/><use xlink:href="#7" y="8.684"/><use xlink:href="#8" y="10.855"/><use xlink:href="#9" y="13.026"/><use xlink:href="#10" y="17.368"/><text y="21.209" class="e">❯</text><text x="2.004" y="21.209" class="i">ls</text><text x="5.01" y="21.209" class="l">-l</text><text x="7.014" y="21.209" class="m">a</text><text x="9.018" y="21.209" class="m">modules/aws/this-awesome-module</text></svg><svg x="4240"><use xlink:href="#a"/><use xlink:href="#b" x="7.996" y="19.514"/><use xlink:href="#4"/><use xlink:href="#5" y="2.171"/><use xlink:href="#6" y="6.513"/><use xlink:href="#7" y="8.684"/><use xlink:href="#8" y="10.855"/><use xlink:href="#9" y="13.026"/><use xlink:href="#10" y="17.368"/><use xlink:href="#12" y="19.539"/></svg><svg x="4320"><use xlink:href="#a"/><use xlink:href="#b" x="8.996" y="19.514"/><use xlink:href="#4"/><use xlink:href="#5" y="2.171"/><use xlink:href="#6" y="6.513"/><use xlink:href="#7" y="8.684"/><use xlink:href="#8" y="10.855"/><use xlink:href="#9" y="13.026"/><use xlink:href="#10" y="17.368"/><use xlink:href="#12" y="19.539"/></svg><svg x="4400"><use xlink:href="#a"/><use xlink:href="#b" x="9.996" y="19.514"/><use xlink:href="#4"/><use xlink:href="#5" y="2.171"/><use xlink:href="#6" y="6.513"/><use xlink:href="#7" y="8.684"/><use xlink:href="#8" y="10.855"/><use xlink:href="#9" y="13.026"/><use xlink:href="#10" y="17.368"/><text y="21.209" class="e">❯</text><text x="2.004" y="21.209" class="i">ls</text><text x="5.01" y="21.209" class="l">-la</text><text x="9.018" y="21.209" class="n">m</text><text x="10.02" y="21.209" class="m">odules/aws/this-awesome-module</text></svg><svg x="4480"><use xlink:href="#a"/><use xlink:href="#b" x="10.996" y="19.514"/><use xlink:href="#4"/><use xlink:href="#5" y="2.171"/><use xlink:href="#6" y="6.513"/><use xlink:href="#7" y="8.684"/><use xlink:href="#8" y="10.855"/><use xlink:href="#9" y="13.026"/><use xlink:href="#10" y="17.368"/><text y="21.209" class="e">❯</text><text x="2.004" y="21.209" class="i">ls</text><text x="5.01" y="21.209" class="l">-la</text><text x="9.018" y="21.209" class="n">mo</text><text x="11.022" y="21.209" class="m">dules/aws/this-awesome-module</text></svg><svg x="4560"><use xlink:href="#a"/><use xlink:href="#b" x="11.996" y="19.514"/><use xlink:href="#4"/><use xlink:href="#5" y="2.171"/><use xlink:href="#6" y="6.513"/><use xlink:href="#7" y="8.684"/><use xlink:href="#8" y="10.855"/><use xlink:href="#9" y="13.026"/><use xlink:href="#10" y="17.368"/><text y="21.209" class="e">❯</text><text x="2.004" y="21.209" class="i">ls</text><text x="5.01" y="21.209" class="l">-la</text><text x="9.018" y="21.209" class="n">mod</text><text x="12.024" y="21.209" class="m">ules/aws/this-awesome-module</text></svg><svg x="4640"><use xlink:href="#a"/><use xlink:href="#b" x="12.996" y="19.514"/><use xlink:href="#4"/><use xlink:href="#5" y="2.171"/><use xlink:href="#6" y="6.513"/><use xlink:href="#7" y="8.684"/><use xlink:href="#8" y="10.855"/><use xlink:href="#9" y="13.026"/><use xlink:href="#10" y="17.368"/><text y="21.209" class="e">❯</text><text x="2.004" y="21.209" class="i">ls</text><text x="5.01" y="21.209" class="l">-la</text><text x="9.018" y="21.209" class="n">modu</text><text x="13.026" y="21.209" class="m">les/aws/this-awesome-module</text></svg><svg x="4720"><use xlink:href="#a"/><use xlink:href="#b" x="13.996" y="19.514"/><use xlink:href="#4"/><use xlink:href="#5" y="2.171"/><use xlink:href="#6" y="6.513"/><use xlink:href="#7" y="8.684"/><use xlink:href="#8" y="10.855"/><use xlink:href="#9" y="13.026"/><use xlink:href="#10" y="17.368"/><text y="21.209" class="e">❯</text><text x="2.004" y="21.209" class="i">ls</text><text x="5.01" y="21.209" class="l">-la</text><text x="9.018" y="21.209" class="n">modu</text><text x="13.026" y="21.209" class="t">…</text><text x="14.028" y="21.209" class="m">es/aws/this-awesome-module</text></svg><svg x="4800"><use xlink:href="#a"/><use xlink:href="#b" x="17.996" y="19.514"/><use xlink:href="#4"/><use xlink:href="#5" y="2.171"/><use xlink:href="#6" y="6.513"/><use xlink:href="#7" y="8.684"/><use xlink:href="#8" y="10.855"/><use xlink:href="#9" y="13.026"/><use xlink:href="#10" y="17.368"/><text y="21.209" class="e">❯</text><text x="2.004" y="21.209" class="i">ls</text><text x="5.01" y="21.209" class="l">-la</text><text x="9.018" y="21.209" class="n">moduules</text><text x="17.034" y="21.209" class="u">/</text><text x="18.036" y="21.209" class="m">ws/this-awesome-module</text></svg><svg x="4880"><use xlink:href="#a"/><use xlink:href="#b" x="1.996" y="19.514"/><use xlink:href="#4"/><use xlink:href="#5" y="2.171"/><use xlink:href="#6" y="6.513"/><use xlink:href="#7" y="8.684"/><use xlink:href="#8" y="10.855"/><use xlink:href="#9" y="13.026"/><use xlink:href="#10" y="17.368"/><use xlink:href="#2" y="19.539"/></svg><svg x="4960"><use xlink:href="#a"/><use xlink:href="#b" x="16.996" y="19.514"/><use xlink:href="#4"/><use xlink:href="#5" y="2.171"/><use xlink:href="#6" y="6.513"/><use xlink:href="#7" y="8.684"/><use xlink:href="#8" y="10.855"/><use xlink:href="#9" y="13.026"/><use xlink:href="#10" y="17.368"/><text y="21.209" class="e">❯</text><text x="2.004" y="21.209" class="i">ls</text><text x="5.01" y="21.209" class="l">-la</text><text x="9.018" y="21.209" class="n">modules</text><text x="16.032" y="21.209" class="u">/</text><text x="17.034" y="21.209" class="m">aws/this-awesome-module</text></svg><svg x="5040"><use xlink:href="#a"/><use xlink:href="#b" x="17.996" y="19.514"/><use xlink:href="#4"/><use xlink:href="#5" y="2.171"/><use xlink:href="#6" y="6.513"/><use xlink:href="#7" y="8.684"/><use xlink:href="#8" y="10.855"/><use xlink:href="#9" y="13.026"/><use xlink:href="#10" y="17.368"/><text y="21.209" class="e">❯</text><text x="2.004" y="21.209" class="i">ls</text><text x="5.01" y="21.209" class="l">-la</text><text x="9.018" y="21.209" class="n">modules/a</text><text x="18.036" y="21.209" class="m">ws/this-awesome-module</text></svg><svg x="5120"><use xlink:href="#a"/><use xlink:href="#b" x="18.996" y="19.514"/><use xlink:href="#4"/><use xlink:href="#5" y="2.171"/><use xlink:href="#6" y="6.513"/><use xlink:href="#7" y="8.684"/><use xlink:href="#8" y="10.855"/><use xlink:href="#9" y="13.026"/><use xlink:href="#10" y="17.368"/><text y="21.209" class="e">❯</text><text x="2.004" y="21.209" class="i">ls</text><text x="5.01" y="21.209" class="l">-la</text><text x="9.018" y="21.209" class="n">modules/aw</text><text x="19.038" y="21.209" class="m">s/this-awesome-module</text></svg><svg x="5200"><use xlink:href="#a"/><use xlink:href="#b" x="19.996" y="19.514"/><use xlink:href="#4"/><use xlink:href="#5" y="2.171"/><use xlink:href="#6" y="6.513"/><use xlink:href="#7" y="8.684"/><use xlink:href="#8" y="10.855"/><use xlink:href="#9" y="13.026"/><use xlink:href="#10" y="17.368"/><text y="21.209" class="e">❯</text><text x="2.004" y="21.209" class="i">ls</text><text x="5.01" y="21.209" class="l">-la</text><text x="9.018" y="21.209" class="n">modules/aws</text><text x="20.04" y="21.209" class="m">/this-awesome-module</text></svg><svg x="5280"><use xlink:href="#a"/><use xlink:href="#b" x="20.996" y="19.514"/><use xlink:href="#4"/><use xlink:href="#5" y="2.171"/><use xlink:href="#6" y="6.513"/><use xlink:href="#7" y="8.684"/><use xlink:href="#8" y="10.855"/><use xlink:href="#9" y="13.026"/><use xlink:href="#10" y="17.368"/><text y="21.209" class="e">❯</text><text x="2.004" y="21.209" class="i">ls</text><text x="5.01" y="21.209" class="l">-la</text><text x="9.018" y="21.209" class="n">modules/aws</text><text x="20.04" y="21.209" class="t">…</text><text x="21.042" y="21.209" class="m">this-awesome-module</text></svg><svg x="5360"><use xlink:href="#a"/><use xlink:href="#b" x="21.996" y="19.514"/><use xlink:href="#4"/><use xlink:href="#5" y="2.171"/><use xlink:href="#6" y="6.513"/><use xlink:href="#7" y="8.684"/><use xlink:href="#8" y="10.855"/><use xlink:href="#9" y="13.026"/><use xlink:href="#10" y="17.368"/><text y="21.209" class="e">❯</text><text x="2.004" y="21.209" class="i">ls</text><text x="5.01" y="21.209" class="l">-la</text><text x="9.018" y="21.209" class="n">modules/awss</text><text x="21.042" y="21.209" class="u">/</text><text x="22.044" y="21.209" class="m">his-awesome-module</text></svg><svg x="5440"><use xlink:href="#a"/><use xlink:href="#b" x="1.996" y="19.514"/><use xlink:href="#4"/><use xlink:href="#5" y="2.171"/><use xlink:href="#6" y="6.513"/><use xlink:href="#7" y="8.684"/><use xlink:href="#8" y="10.855"/><use xlink:href="#9" y="13.026"/><use xlink:href="#10" y="17.368"/><use xlink:href="#2" y="19.539"/></svg><svg x="5520"><use xlink:href="#a"/><use xlink:href="#b" x="20.996" y="19.514"/><use xlink:href="#4"/><use xlink:href="#5" y="2.171"/><use xlink:href="#6" y="6.513"/><use xlink:href="#7" y="8.684"/><use xlink:href="#8" y="10.855"/><use xlink:href="#9" y="13.026"/><use xlink:href="#10" y="17.368"/><text y="21.209" class="e">❯</text><text x="2.004" y="21.209" class="i">ls</text><text x="5.01" y="21.209" class="l">-la</text><text x="9.018" y="21.209" class="n">modules/aws</text><text x="20.04" y="21.209" class="u">/</text><text x="21.042" y="21.209" class="m">this-awesome-module</text></svg><svg x="5600"><use xlink:href="#a"/><use xlink:href="#b" x="21.996" y="19.514"/><use xlink:href="#4"/><use xlink:href="#5" y="2.171"/><use xlink:href="#6" y="6.513"/><use xlink:href="#7" y="8.684"/><use xlink:href="#8" y="10.855"/><use xlink:href="#9" y="13.026"/><use xlink:href="#10" y="17.368"/><text y="21.209" class="e">❯</text><text x="2.004" y="21.209" class="i">ls</text><text x="5.01" y="21.209" class="l">-la</text><text x="9.018" y="21.209" class="n">modules/aws/m</text><text x="22.044" y="21.209" class="m">y-awesome-module</text></svg><svg x="5680"><use xlink:href="#a"/><use xlink:href="#b" x="22.996" y="19.514"/><use xlink:href="#4"/><use xlink:href="#5" y="2.171"/><use xlink:href="#6" y="6.513"/><use xlink:href="#7" y="8.684"/><use xlink:href="#8" y="10.855"/><use xlink:href="#9" y="13.026"/><use xlink:href="#10" y="17.368"/><text y="21.209" class="e">❯</text><text x="2.004" y="21.209" class="i">ls</text><text x="5.01" y="21.209" class="l">-la</text><text x="9.018" y="21.209" class="n">modules/aws/my</text><text x="23.046" y="21.209" class="m">-awesome-module</text></svg><svg x="5760"><use xlink:href="#a"/><use xlink:href="#b" x="23.996" y="19.514"/><use xlink:href="#4"/><use xlink:href="#5" y="2.171"/><use xlink:href="#6" y="6.513"/><use xlink:href="#7" y="8.684"/><use xlink:href="#8" y="10.855"/><use xlink:href="#9" y="13.026"/><use xlink:href="#10" y="17.368"/><text y="21.209" class="e">❯</text><text x="2.004" y="21.209" class="i">ls</text><text x="5.01" y="21.209" class="l">-la</text><text x="9.018" y="21.209" class="n">modules/aws/my</text><text x="23.046" y="21.209" class="t">…</text><text x="24.048" y="21.209" class="m">awesome-module</text></svg><svg x="5840"><use xlink:href="#a"/><use xlink:href="#b" x="39.996" y="19.514"/><use xlink:href="#4"/><use xlink:href="#5" y="2.171"/><use xlink:href="#6" y="6.513"/><use xlink:href="#7" y="8.684"/><use xlink:href="#8" y="10.855"/><use xlink:href="#9" y="13.026"/><use xlink:href="#10" y="17.368"/><text y="21.209" class="e">❯</text><text x="2.004" y="21.209" class="i">ls</text><text x="5.01" y="21.209" class="l">-la</text><text x="9.018" y="21.209" class="n">modules/aws/myy-awesome-module</text><text x="39.078" y="21.209" class="u">/</text></svg><svg x="5920"><use xlink:href="#a"/><use xlink:href="#b" x="38.996" y="19.514"/><use xlink:href="#4"/><use xlink:href="#5" y="2.171"/><use xlink:href="#6" y="6.513"/><use xlink:href="#7" y="8.684"/><use xlink:href="#8" y="10.855"/><use xlink:href="#9" y="13.026"/><use xlink:href="#10" y="17.368"/><text y="21.209" class="e">❯</text><text x="2.004" y="21.209" class="i">ls</text><text x="5.01" y="21.209" class="l">-la</text><text x="9.018" y="21.209" class="n">modules/aws/my-awesome-module</text><text x="38.076" y="21.209" class="u">/</text></svg><svg x="6000"><use xlink:href="#a"/><use xlink:href="#b" x="37.996" y="19.514"/><use xlink:href="#4"/><use xlink:href="#5" y="2.171"/><use xlink:href="#6" y="6.513"/><use xlink:href="#7" y="8.684"/><use xlink:href="#8" y="10.855"/><use xlink:href="#9" y="13.026"/><use xlink:href="#10" y="17.368"/><use xlink:href="#13" y="19.539"/></svg><svg x="6080"><use xlink:href="#a"/><use xlink:href="#b" x="37.996" y="19.514"/><use xlink:href="#4"/><use xlink:href="#5" y="2.171"/><use xlink:href="#6" y="6.513"/><use xlink:href="#7" y="8.684"/><use xlink:href="#8" y="10.855"/><use xlink:href="#9" y="13.026"/><use xlink:href="#10" y="17.368"/><use xlink:href="#13" y="19.539"/></svg><svg x="6160"><use xlink:href="#a"/><use xlink:href="#4"/><use xlink:href="#5" y="2.171"/><use xlink:href="#6" y="6.513"/><use xlink:href="#7" y="8.684"/><use xlink:href="#8" y="10.855"/><use xlink:href="#9" y="13.026"/><use xlink:href="#10" y="17.368"/><use xlink:href="#13" y="19.539"/></svg><svg x="6240"><use xlink:href="#a"/><use xlink:href="#b" x="37.996" y="15.172"/><use xlink:href="#4"/><use xlink:href="#5" y="2.171"/><use xlink:href="#6" y="6.513"/><use xlink:href="#7" y="8.684"/><use xlink:href="#8" y="10.855"/><use xlink:href="#9" y="13.026"/><use xlink:href="#13" y="15.197"/></svg><svg x="6320"><use xlink:href="#a"/><use xlink:href="#b" x="-.004" y="17.343"/><use xlink:href="#4"/><use xlink:href="#5" y="2.171"/><use xlink:href="#6" y="6.513"/><use xlink:href="#7" y="8.684"/><use xlink:href="#8" y="10.855"/><use xlink:href="#9" y="13.026"/><use xlink:href="#13" y="15.197"/></svg><svg x="6400"><use xlink:href="#a"/><use xlink:href="#b" x="-.004" y="19.514"/><use xlink:href="#4"/><use xlink:href="#5" y="2.171"/><use xlink:href="#6" y="6.513"/><use xlink:href="#7" y="8.684"/><use xlink:href="#8" y="10.855"/><use xlink:href="#9" y="13.026"/><use xlink:href="#13" y="15.197"/><use xlink:href="#14" y="17.368"/></svg><svg x="6480"><use xlink:href="#a"/><use xlink:href="#b" x="-.004" y="23.856"/><use xlink:href="#6"/><use xlink:href="#7" y="2.171"/><use xlink:href="#8" y="4.342"/><use xlink:href="#9" y="6.513"/><use xlink:href="#13" y="8.684"/><use xlink:href="#14" y="10.855"/><use xlink:href="#15" y="13.026"/><use xlink:href="#16" y="15.197"/><use xlink:href="#17" y="17.368"/><use xlink:href="#18" y="19.539"/><use xlink:href="#19" y="21.71"/></svg><svg x="6560"><use xlink:href="#a"/><use xlink:href="#b" x="-.004" y="23.856"/><use xlink:href="#14"/><use xlink:href="#15" y="2.171"/><use xlink:href="#16" y="4.342"/><use xlink:href="#17" y="6.513"/><use xlink:href="#18" y="8.684"/><use xlink:href="#19" y="10.855"/><use xlink:href="#20" y="13.026"/><use xlink:href="#21" y="15.197"/><use xlink:href="#22" y="17.368"/><use xlink:href="#23" y="19.539"/><use xlink:href="#24" y="21.71"/></svg><svg x="6640"><use xlink:href="#a"/><use xlink:href="#b" x="-.004" y="23.856"/><use xlink:href="#14"/><use xlink:href="#15" y="2.171"/><use xlink:href="#16" y="4.342"/><use xlink:href="#17" y="6.513"/><use xlink:href="#18" y="8.684"/><use xlink:href="#19" y="10.855"/><use xlink:href="#20" y="13.026"/><use xlink:href="#21" y="15.197"/><use xlink:href="#22" y="17.368"/><use xlink:href="#23" y="19.539"/><use xlink:href="#24" y="21.71"/></svg><svg x="6720"><use xlink:href="#a"/><use xlink:href="#b" x="1.996" y="23.856"/><use xlink:href="#16"/><use xlink:href="#17" y="2.171"/><use xlink:href="#18" y="4.342"/><use xlink:href="#19" y="6.513"/><use xlink:href="#20" y="8.684"/><use xlink:href="#21" y="10.855"/><use xlink:href="#22" y="13.026"/><use xlink:href="#23" y="15.197"/><use xlink:href="#24" y="17.368"/><use xlink:href="#10" y="21.71"/><use xlink:href="#2" y="23.881"/></svg><svg x="6800"><use xlink:href="#a"/><use xlink:href="#b" x="1.996" y="23.856"/><use xlink:href="#16"/><use xlink:href="#17" y="2.171"/><use xlink:href="#18" y="4.342"/><use xlink:href="#19" y="6.513"/><use xlink:href="#20" y="8.684"/><use xlink:href="#21" y="10.855"/><use xlink:href="#22" y="13.026"/><use xlink:href="#23" y="15.197"/><use xlink:href="#24" y="17.368"/><use xlink:href="#10" y="21.71"/><use xlink:href="#2" y="23.881"/></svg><svg x="6880"><use xlink:href="#a"/><use xlink:href="#b" x="1.996" y="23.856"/><use xlink:href="#16"/><use xlink:href="#17" y="2.171"/><use xlink:href="#18" y="4.342"/><use xlink:href="#19" y="6.513"/><use xlink:href="#20" y="8.684"/><use xlink:href="#21" y="10.855"/><use xlink:href="#22" y="13.026"/><use xlink:href="#23" y="15.197"/><use xlink:href="#24" y="17.368"/><use xlink:href="#10" y="21.71"/><use xlink:href="#2" y="23.881"/></svg><svg x="6960"><use xlink:href="#a"/><use xlink:href="#b" x="1.996" y="23.856"/><use xlink:href="#16"/><use xlink:href="#17" y="2.171"/><use xlink:href="#18" y="4.342"/><use xlink:href="#19" y="6.513"/><use xlink:href="#20" y="8.684"/><use xlink:href="#21" y="10.855"/><use xlink:href="#22" y="13.026"/><use xlink:href="#23" y="15.197"/><use xlink:href="#24" y="17.368"/><use xlink:href="#10" y="21.71"/><use xlink:href="#2" y="23.881"/></svg><svg x="7040"><use xlink:href="#a"/><use xlink:href="#b" x="-.004" y="23.856"/><use xlink:href="#17"/><use xlink:href="#18" y="2.171"/><use xlink:href="#19" y="4.342"/><use xlink:href="#20" y="6.513"/><use xlink:href="#21" y="8.684"/><use xlink:href="#22" y="10.855"/><use xlink:href="#23" y="13.026"/><use xlink:href="#24" y="15.197"/><use xlink:href="#10" y="19.539"/><use xlink:href="#2" y="21.71"/></svg></svg></g></g></svg></svg>